<svg xmlns="http://www.w3.org/2000/svg" viewBox="0 0 600 600">
  <defs>
    <linearGradient id="bg" x1="0" y1="0" x2="1" y2="1">
      <stop offset="0%" stop-color="#f2f5fc"/>
      <stop offset="100%" stop-color="#e4eaf8"/>
    </linearGradient>
  </defs>
  <rect width="600" height="600" fill="url(#bg)"/>
  
  <g transform="translate(300 300)">
    <rect x="-190" y="-190" width="380" height="380" rx="10" fill="#fff" stroke="#274690" stroke-width="16"/>
    
  <g transform="translate(0 20) scale(0.62)">
    <path d="M -150 -140 L -80 -180 Q 0 -150 80 -180 L 150 -140 L 190 -60 L 120 -30 L 120 180 Q 0 200 -120 180 L -120 -30 L -190 -60 Z"
      fill="#274690" stroke="#22262e" stroke-width="10" stroke-linejoin="round"/>
    <path d="M -80 -180 Q 0 -150 80 -180 Q 40 -120 0 -120 Q -40 -120 -80 -180 Z" fill="#22262e"/>
    <circle cx="0" cy="30" r="46" fill="none" stroke="#22262e" stroke-width="8" opacity="0.85"/>
    <text x="0" y="48" text-anchor="middle" font-family="Manrope, system-ui, sans-serif" font-size="52" font-weight="700" fill="#22262e">10</text>
  </g>
    <path d="M -120 -120 q 40 -40 70 -6 q 24 26 -12 30 q 60 -10 100 -34" fill="none" stroke="#22262e" stroke-width="7" stroke-linecap="round"/>
  </g>
</svg>